<svg xmlns="http://www.w3.org/2000/svg" style="background:rgb(255, 255, 255)" width="184" height="184" viewBox="0 0 100 100" preserveAspectRatio="xMidYMid" xmlns:v="https://vecta.io/nano"><style><![CDATA[.B{fill:#259c17}]]></style><g class="B"><rect x="45" y="3" rx="0" ry="0" width="10" height="52"><animate attributeName="opacity" values="1;0" keyTimes="0;1" dur="1s" begin="-0.9523809523809523s" repeatCount="indefinite"/></rect></g><g class="B"><rect x="45" y="3" rx="0" ry="0" width="10" height="52" transform="rotate(17.143 50 50)"><animate attributeName="opacity" values="1;0" keyTimes="0;1" dur="1s" begin="-0.9047619047619048s" repeatCount="indefinite"/></rect></g><g class="B"><rect x="45" y="3" rx="0" ry="0" width="10" height="52" transform="rotate(34.286 50 50)"><animate attributeName="opacity" values="1;0" keyTimes="0;1" dur="1s" begin="-0.8571428571428571s" repeatCount="indefinite"/></rect></g><g class="B"><rect x="45" y="3" rx="0" ry="0" width="10" height="52" transform="rotate(51.429 50 50)"><animate attributeName="opacity" values="1;0" keyTimes="0;1" dur="1s" begin="-0.8095238095238095s" repeatCount="indefinite"/></rect></g><g class="B"><rect x="45" y="3" rx="0" ry="0" width="10" height="52" transform="rotate(68.571 50 50)"><animate attributeName="opacity" values="1;0" keyTimes="0;1" dur="1s" begin="-0.7619047619047619s" repeatCount="indefinite"/></rect></g><g class="B"><rect x="45" y="3" rx="0" ry="0" width="10" height="52" transform="rotate(85.714 50 50)"><animate attributeName="opacity" values="1;0" keyTimes="0;1" dur="1s" begin="-0.7142857142857143s" repeatCount="indefinite"/></rect></g><g class="B"><rect x="45" y="3" rx="0" ry="0" width="10" height="52" transform="rotate(102.857 50 50)"><animate attributeName="opacity" values="1;0" keyTimes="0;1" dur="1s" begin="-0.6666666666666666s" repeatCount="indefinite"/></rect></g><g class="B"><rect x="45" y="3" rx="0" ry="0" width="10" height="52" transform="rotate(120 50 50)"><animate attributeName="opacity" values="1;0" keyTimes="0;1" dur="1s" begin="-0.6190476190476191s" repeatCount="indefinite"/></rect></g><g class="B"><rect x="45" y="3" rx="0" ry="0" width="10" height="52" transform="rotate(137.143 50 50)"><animate attributeName="opacity" values="1;0" keyTimes="0;1" dur="1s" begin="-0.5714285714285714s" repeatCount="indefinite"/></rect></g><g class="B"><rect x="45" y="3" rx="0" ry="0" width="10" height="52" transform="rotate(154.286 50 50)"><animate attributeName="opacity" values="1;0" keyTimes="0;1" dur="1s" begin="-0.5238095238095238s" repeatCount="indefinite"/></rect></g><g class="B"><rect x="45" y="3" rx="0" ry="0" width="10" height="52" transform="rotate(171.429 50 50)"><animate attributeName="opacity" values="1;0" keyTimes="0;1" dur="1s" begin="-0.47619047619047616s" repeatCount="indefinite"/></rect></g><g class="B"><rect x="45" y="3" rx="0" ry="0" width="10" height="52" transform="rotate(188.571 50 50)"><animate attributeName="opacity" values="1;0" keyTimes="0;1" dur="1s" begin="-0.42857142857142855s" repeatCount="indefinite"/></rect></g><g class="B"><rect x="45" y="3" rx="0" ry="0" width="10" height="52" transform="rotate(205.714 50 50)"><animate attributeName="opacity" values="1;0" keyTimes="0;1" dur="1s" begin="-0.38095238095238093s" repeatCount="indefinite"/></rect></g><g class="B"><rect x="45" y="3" rx="0" ry="0" width="10" height="52" transform="rotate(222.857 50 50)"><animate attributeName="opacity" values="1;0" keyTimes="0;1" dur="1s" begin="-0.3333333333333333s" repeatCount="indefinite"/></rect></g><g class="B"><rect x="45" y="3" rx="0" ry="0" width="10" height="52" transform="rotate(240 50 50)"><animate attributeName="opacity" values="1;0" keyTimes="0;1" dur="1s" begin="-0.2857142857142857s" repeatCount="indefinite"/></rect></g><g class="B"><rect x="45" y="3" rx="0" ry="0" width="10" height="52" transform="rotate(257.143 50 50)"><animate attributeName="opacity" values="1;0" keyTimes="0;1" dur="1s" begin="-0.23809523809523808s" repeatCount="indefinite"/></rect></g><g class="B"><rect x="45" y="3" rx="0" ry="0" width="10" height="52" transform="rotate(274.286 50 50)"><animate attributeName="opacity" values="1;0" keyTimes="0;1" dur="1s" begin="-0.19047619047619047s" repeatCount="indefinite"/></rect></g><g class="B"><rect x="45" y="3" rx="0" ry="0" width="10" height="52" transform="rotate(291.429 50 50)"><animate attributeName="opacity" values="1;0" keyTimes="0;1" dur="1s" begin="-0.14285714285714285s" repeatCount="indefinite"/></rect></g><g class="B"><rect x="45" y="3" rx="0" ry="0" width="10" height="52" transform="rotate(308.571 50 50)"><animate attributeName="opacity" values="1;0" keyTimes="0;1" dur="1s" begin="-0.09523809523809523s" repeatCount="indefinite"/></rect></g><g class="B"><rect x="45" y="3" rx="0" ry="0" width="10" height="52" transform="rotate(325.714 50 50)"><animate attributeName="opacity" values="1;0" keyTimes="0;1" dur="1s" begin="-0.047619047619047616s" repeatCount="indefinite"/></rect></g><g class="B"><rect x="45" y="3" rx="0" ry="0" width="10" height="52" transform="rotate(342.857 50 50)"><animate attributeName="opacity" values="1;0" keyTimes="0;1" dur="1s" begin="0s" repeatCount="indefinite"/></rect></g></svg>